<?xml version="1.0" encoding="UTF-8"?>
<!DOCTYPE svg  PUBLIC '-//W3C//DTD SVG 1.1//EN'  'http://www.w3.org/Graphics/SVG/1.1/DTD/svg11.dtd'>
<svg version="1.1" xmlns="http://www.w3.org/2000/svg">
<defs>
<font id="XeniaCameo" horiz-adv-x="642">
<font-face font-family="XeniaCameo" font-weight="400" ascent="800" bbox="0 -300 1068 1000" cap-height="1000" descent="-200" panose-1="2 0 5 3 0 0 0 2 0 4" underline-position="-100" underline-thickness="50" unicode-range="U+0020-00FC" units-per-em="1000" x-height="1000"/>
<missing-glyph/>
<glyph d="M0 -300v1300h233v-1300h-233z" glyph-name="space" horiz-adv-x="233" unicode=" "/>
<glyph d="M0 -300v1300h233v-1300h-233z" glyph-name="space" horiz-adv-x="233" unicode=" "/>
<glyph d="M75 105q0 -63 52 -97q30 -19 65 -19q69 0 101 61q15 27 15 55q0 59 -49 95q-31 22 -67 22q-62 0 -97 -52q-20 -30 -20 -65zM113 264h157l43 383q6 53 -29 63q-14 3 -38 4h-54h-56q-64 -2 -68 -37q0 -8 2 -30zM0 -300v1300h382v-1300h-382z" glyph-name="exclam" horiz-adv-x="382" unicode="!"/>
<glyph d="M241 700h-173l44 -241h85zM464 700h-174l45 -241h84zM0 -300v1300h532v-1300h-532z" glyph-name="quotedbl" horiz-adv-x="532" unicode='"'/>
<glyph d="M458 762h-126l-31 -177h-154l-20 -120h158l-34 -196h-159l-24 -132h165l-30 -172h126l30 172h178l-30 -172h127l29 172h154l22 132h-158l35 196h159l20 120h-163l31 177h-126l-31 -177h-179zM590 465l-34 -196h-180l34 196h180zM0 -300v1300h963v-1300h-963z" glyph-name="numbersign" horiz-adv-x="963" unicode="#"/>
<glyph d="M326 198h-223q0 -134 109 -185q61 -28 151 -27v-124h102v124q167 16 219 138q18 43 18 91q0 105 -99 164q-35 20 -91 42q-15 6 -44 16q-83 29 -106 52q-18 19 -18 42q4 50 65 52q46 0 60 -19t14 -63h222q-13 209 -240 214v99h-102v-99q-129 1 -197 -84q-46 -59 -46 -139 q0 -112 112 -175q16 -8 47 -23q26 -12 75 -33q92 -40 112 -61q15 -16 15 -33q0 -36 -46 -47q-16 -3 -35 -3q-52 0 -66 31q-7 19 -8 50zM0 -300v1300h808v-1300h-808z" glyph-name="dollar" horiz-adv-x="808" unicode="$"/>
<glyph d="M320 -132l424 848l-98 58l-423 -848zM69 524q0 -125 80 -173q40 -23 96 -23q121 0 160 99q16 41 16 97q0 146 -102 184q-33 12 -74 12q-138 0 -169 -130q-7 -31 -7 -66zM211 489v69q0 24 3 39.5t8.5 21t10 7t11.5 1.5h1q20 0 26 -14q8 -18 8 -55v-69q0 -24 -3 -39 t-8.5 -20.5t-10 -7t-11.5 -1.5h-1q-20 0 -27 16q-7 18 -7 52zM570 143q0 -122 78 -170q41 -25 99 -25q122 0 160 102q15 40 15 93q0 151 -110 187q-30 9 -65 9q-140 0 -170 -131q-7 -31 -7 -65zM712 108v70q0 55 20 66q7 3 15 3q33 0 33 -58v-11v-70q0 -47 -11 -59 q-10 -9 -23 -9q-34 9 -34 68zM0 -300v1300h991v-1300h-991z" glyph-name="percent" horiz-adv-x="991" unicode="%"/>
<glyph d="M586 422v-120h26q21 0 22 -10q0 -12 -45 -74q-1 -2 -2 -3h-6q-50 73 -93 151q-10 18 -16 29l1 8q97 56 120 115q10 25 10 51q0 83 -64 123q-44 26 -110 26q-141 0 -199 -83q-29 -41 -29 -94t51 -119q5 -6 9 -11q-153 -54 -177 -180q-4 -21 -4 -41q0 -124 103 -176 q63 -31 157 -31q114 1 198 58q75 -56 163 -58q91 2 126 75l-75 70q-15 -35 -55 -35q-24 0 -46 31q-4 6 -7 11q21 22 71 85q14 18 28 34q29 34 38 39q16 9 36 9v120h-231zM457 119q-38 -26 -67 -26q-77 0 -99 64q-7 20 -7 42q1 65 41 107q70 -122 132 -187zM419 494h-9 q-38 38 -41 81q0 44 35 60q12 5 24 5q37 0 44 -41q1 -8 1 -15q0 -46 -48 -86q-4 -2 -6 -4zM0 -300v1300h907v-1300h-907z" glyph-name="ampersand" horiz-adv-x="907" unicode="&amp;"/>
<glyph d="M242 700h-174l45 -241h84zM0 -300v1300h310v-1300h-310z" glyph-name="quotesingle" horiz-adv-x="310" unicode="'"/>
<glyph d="M310 -247l100 115q-133 170 -133 367q0 164 93 311q19 29 40 56l-100 115q-187 -139 -231 -369q-11 -56 -11 -105q0 -195 109 -352q55 -78 133 -138zM0 -300v1300h490v-1300h-490z" glyph-name="parenleft" horiz-adv-x="490" unicode="("/>
<glyph d="M80 -132l100 -115q201 163 235 398q7 46 7 92q0 247 -188 427q-26 25 -54 47l-100 -115q123 -160 132 -342q1 -13 1 -25q-1 -191 -133 -367zM0 -300v1300h490v-1300h-490z" glyph-name="parenright" horiz-adv-x="490" unicode=")"/>
<glyph d="M220 468l-20 -28q-37 16 -69 -9q-21 -18 -22 -46q0 -48 36 -69q11 -6 22 -6q42 0 64 31q10 14 10 30q-1 31 -16 51l21 29h33l18 -30q-15 -18 -15 -50q0 -45 49 -58q12 -3 23 -3q35 0 52 40q7 18 7 35q0 32 -31 51q-29 17 -59 4l-21 28l9 31l33 11q19 -29 43 -30 q63 0 76 37q2 8 2 15q0 58 -32 75q-9 5 -19 5q-53 0 -72 -36q-8 -16 -7 -35l-34 -11l-25 18v36q38 9 49 49q2 9 2 17q0 41 -36 60q-15 7 -31 7q-38 0 -57 -35q-8 -15 -8 -32q0 -40 34 -59q8 -5 16 -7v-35l-23 -19l-35 11q3 41 -37 61q-19 10 -42 10q-33 0 -46 -44 q-5 -17 -5 -36q0 -45 62 -51q8 -1 16 -1q25 0 41 29l1 1l36 -11zM0 -300v1300h522v-1300h-522z" glyph-name="asterisk" horiz-adv-x="522" unicode="*"/>
<glyph d="M391 82v194h196v129h-196v195h-127v-195h-196v-129h196v-194h127zM0 -300v1300h655v-1300h-655z" glyph-name="plus" horiz-adv-x="655" unicode="+"/>
<glyph d="M180 -11v-4q-28 -57 -95 -148l82 -61q157 154 158 294q0 117 -83 152q-25 10 -52 10q-63 0 -100 -51q-22 -31 -22 -67q0 -59 46 -97q28 -23 66 -28zM0 -300v1300h393v-1300h-393z" glyph-name="comma" horiz-adv-x="393" unicode=","/>
<glyph d="M68 117q0 -58 44 -97q36 -31 85 -31q67 0 105 54q23 33 23 74q0 66 -54 104q-34 24 -74 24q-65 0 -104 -53q-25 -35 -25 -75zM0 -300v1300h393v-1300h-393z" glyph-name="period" horiz-adv-x="393" unicode="."/>
<glyph d="M196 -210l401 879l-127 70l-402 -880zM0 -300v1300h665v-1300h-665z" glyph-name="slash" horiz-adv-x="665" unicode="/"/>
<glyph d="M321 717q-141 0 -222 -113q-5 -8 -9 -14q-58 -91 -63 -223v-17q0 -125 44 -218q8 -14 15 -26q66 -103 190 -120q23 -3 45 -3q146 0 226 110q5 7 9 13q59 96 59 244q0 122 -52 220q-6 11 -11 20q-71 111 -198 125q-17 2 -33 2zM382 373v-72q0 -157 -42 -175q-9 -4 -19 -4 q-36 0 -49 49q-12 43 -12 130v72q0 175 34 199q10 6 27 6q30 0 42 -27q19 -43 19 -178zM0 -300v1300h642v-1300h-642z" glyph-name="zero" unicode="0"/>
<glyph d="M168 0h341v129h-28q-32 0 -35 22q-1 6 -1 18v531h-141q-39 -102 -147 -154v-122h79v-255q0 -26 -5 -32q-10 -8 -30 -8h-33v-129zM0 -300v1300h642v-1300h-642z" glyph-name="one" unicode="1"/>
<glyph d="M35 0h538l28 201h-129q-19 -41 -25 -47q-14 -13 -41 -13h-135l1 7q159 62 248 181q66 90 66 180q0 103 -90 162q-70 46 -169 46q-228 0 -277 -187q-10 -38 -12 -80h199q5 106 39 122q11 5 25 5q52 -1 52 -81q0 -139 -218 -289q-46 -32 -100 -62v-145zM0 -300v1300h642 v-1300h-642z" glyph-name="two" unicode="2"/>
<glyph d="M235 298h50q74 0 83 -65q1 -5 1 -9v-20q-4 -70 -47 -79q-8 -1 -16 -1q-59 0 -69 68q-3 17 -3 39h-191q-1 -118 80 -185q76 -63 212 -63q170 0 233 94q31 47 31 113q0 132 -105 174q-19 7 -38 11v5q72 14 106 75q19 36 19 79q0 89 -75 140q-65 43 -172 43 q-209 0 -266 -151q-13 -36 -16 -75h196q-6 56 29 77q16 9 36 9q56 -3 57 -66q-1 -72 -74 -73h-61v-140zM0 -300v1300h642v-1300h-642z" glyph-name="three" unicode="3"/>
<glyph d="M606 0v129h-30q-25 0 -32 9q-5 9 -5 22v19h72v128h-72v393h-152l-384 -384v-137h327v-19q-10 -29 -37 -31h-30v-129h343zM330 453v-146h-142zM0 -300v1300h642v-1300h-642z" glyph-name="four" unicode="4"/>
<glyph d="M232 222h-192q2 -181 170 -225q52 -14 117 -14q165 0 237 117q38 63 38 139q0 110 -76 171q-68 54 -187 54q-32 0 -64 -4l7 82q51 -12 114 -12q79 1 135 36v134h-417l-24 -372q68 9 127 9q103 0 134 -34q18 -22 18 -56v-25q0 -69 -39 -91q-14 -7 -29 -7q-57 0 -67 67 q-2 15 -2 31zM0 -300v1300h642v-1300h-642z" glyph-name="five" unicode="5"/>
<glyph d="M258 415v22q0 128 58 139q7 1 13 1q44 0 59 -45q5 -14 5 -30h194q-43 215 -255 215q-229 0 -276 -254q-12 -64 -12 -141q0 -260 178 -322q50 -17 112 -17q152 0 224 107q40 60 40 133q0 103 -64 165q-58 55 -152 55q-79 -1 -124 -28zM334 124q-53 0 -63 53q-3 19 -3 46 q0 69 34 84q14 5 32 5q43 0 52 -43q3 -17 3 -46q0 -70 -20 -88q-14 -11 -35 -11zM0 -300v1300h642v-1300h-642z" glyph-name="six" unicode="6"/>
<glyph d="M581 700h-498v-222h119q6 66 38 77q13 4 33 4h132q-95 -106 -166 -251q-83 -170 -91 -300v-8h235q-6 91 26 224q5 21 10 36q38 119 131 260q14 21 31 46v134zM0 -300v1300h642v-1300h-642z" glyph-name="seven" unicode="7"/>
<glyph d="M461 369v4q85 23 115 95q11 28 11 57q0 90 -73 142q-70 50 -193 50q-197 0 -250 -119q-16 -35 -16 -73q0 -78 67 -124q26 -19 59 -28v-4q-83 -19 -122 -94q-22 -43 -22 -93q0 -107 95 -159q72 -40 189 -40q215 0 269 124q15 36 15 75q0 97 -73 153q-32 25 -71 34z M321 297q53 0 59 -71q1 -9 1 -17q0 -68 -34 -81q-12 -5 -26 -5q-53 0 -60 60q-1 12 -1 26q1 87 61 88zM321 438q-57 3 -58 74q1 75 58 75q52 0 57 -64v-11q-2 -73 -57 -74zM0 -300v1300h642v-1300h-642z" glyph-name="eight" unicode="8"/>
<glyph d="M383 285v-22q0 -101 -33 -127q-16 -12 -38 -12q-47 0 -61 51q-3 12 -3 24h-189q2 -96 70 -156t181 -60q230 0 276 258q11 62 11 137q0 293 -220 333q-33 6 -70 6q-136 0 -210 -88q-53 -65 -53 -155q0 -129 96 -186q53 -31 120 -31q78 0 123 28zM312 577q42 0 56 -43 q3 -10 4 -20v-37v-33q-4 -40 -39 -53q-11 -3 -21 -3q-50 0 -58 51q-3 16 -3 38q0 81 37 96q11 4 24 4zM0 -300v1300h642v-1300h-642z" glyph-name="nine" unicode="9"/>
<glyph d="M68 117q0 -58 44 -97q36 -31 85 -31q67 0 105 54q23 33 23 74q0 66 -54 104q-34 24 -74 24q-65 0 -104 -53q-25 -35 -25 -75zM68 413q0 -65 54 -104q35 -24 75 -24q66 0 104 54q24 34 24 74q0 68 -56 106q-33 22 -72 22q-65 0 -104 -53q-25 -34 -25 -75zM0 -300v1300h393 v-1300h-393z" glyph-name="colon" horiz-adv-x="393" unicode=":"/>
<glyph d="M339 339l341 197l-65 116l-547 -316l547 -316l65 116l-341 197v6zM0 -300v1300h748v-1300h-748z" glyph-name="less" horiz-adv-x="748" unicode="&lt;"/>
<glyph d="M68 372h531v127h-531v-127zM68 301v-128h531v128h-531zM0 -300v1300h667v-1300h-667z" glyph-name="equal" horiz-adv-x="667" unicode="="/>
<glyph d="M409 361l-341 -197l65 -116l547 316l-547 316l-65 -116l341 -197v-6zM748 1000v-1300h-748v1300h748z" glyph-name="greater" horiz-adv-x="748" unicode="&gt;"/>
<glyph d="M68 457h169q5 81 20 104q16 22 46 22q50 0 59 -46q1 -8 1 -16q0 -37 -41 -75q-44 -40 -53 -51q-42 -53 -35 -131h152q9 37 39 50q5 1 20 7q138 52 139 194q0 95 -77 152q-68 50 -179 50q-185 0 -241 -141q-21 -54 -19 -119zM210 105q0 -53 41 -89q32 -27 75 -27 q64 0 98 52q19 29 19 64q0 60 -50 96q-30 21 -67 21q-59 0 -94 -50q-22 -31 -22 -67zM0 -300v1300h652v-1300h-652z" glyph-name="question" horiz-adv-x="652" unicode="?"/>
<glyph d="M796 540h-123l-16 -41h-9q-49 75 -142 75q-111 0 -184 -89q-67 -82 -67 -197q0 -102 76 -155q48 -34 109 -34q89 1 164 74h7q40 -75 137 -75q134 0 197 115q38 69 38 157q0 151 -95 266q-119 145 -332 153q-14 1 -26 1q-203 0 -333 -133q-118 -120 -128 -299 q-1 -15 -1 -30q0 -198 132 -325q119 -114 294 -125q16 -1 31 -1q143 1 263 97l-45 64q-124 -79 -226 -79q-110 0 -206 62q-157 103 -158 317q0 170 111 277q106 102 266 102q187 0 293 -125q80 -96 80 -220q0 -93 -45 -151q-35 -45 -86 -46q-21 0 -34.5 6.5t-18.5 17 t-6 16.5t-1 13q0 28 14 79zM629 428l-53 -196q-41 -61 -99 -62q-58 0 -78 59q-8 23 -8 50q0 99 63 164q46 47 101 48q46 0 67 -43q5 -10 7 -20zM0 -300v1300h1051v-1300h-1051z" glyph-name="at" horiz-adv-x="1051" unicode="@"/>
<glyph d="M546 700h-396v-129h17q41 -2 42 -14q-1 -8 -8 -33l-97 -310q-20 -64 -36 -76q-12 -9 -31 -9h-16v-129h268v129h-10q-28 2 -29 25q0 7 6 24h207q7 -30 7 -33t-1 -5.5t-2 -4.5t-3.5 -3t-3.5 -1.5t-4.5 -1t-4.5 -0.5h-5h-3h-24v-129h334v129h-15q-31 0 -42 30q-4 11 -9 29z M361 519h5l56 -200h-122zM0 -300v1300h774v-1300h-774z" glyph-name="A" horiz-adv-x="774" unicode="A"/>
<glyph d="M45 700v-129h38q26 0 31 -13q4 -10 4 -26v-364q0 -35 -20 -38q-6 -1 -15 -1h-38v-129h250q162 0 212 7q134 20 164 111q11 32 11 72q0 109 -87 154q-35 18 -70 18h-19v9h12q69 0 112 57q31 41 31 95q0 118 -98 154q-69 23 -233 23h-285zM327 423v136h27q63 0 79 -34 q8 -16 8 -38q0 -63 -75 -64h-13h-7h-19zM327 141v141h30q60 0 79 -24q13 -17 13 -42q0 -59 -53 -71q-20 -4 -49 -4h-20zM0 -300v1300h709v-1300h-709z" glyph-name="B" horiz-adv-x="709" unicode="B"/>
<glyph d="M432 432h237q-2 132 -101 213q-89 72 -220 72q-145 0 -235 -106q-86 -101 -86 -261q0 -260 180 -339q66 -28 145 -28q175 0 266 120q58 78 62 179h-237q1 -158 -92 -159q-44 0 -59 15q-30 31 -32 189v26q0 120 9 156q18 67 80 68q62 0 76 -70q5 -25 7 -75zM0 -300v1300 h707v-1300h-707z" glyph-name="C" horiz-adv-x="707" unicode="C"/>
<glyph d="M57 700v-129h38q26 0 31 -13q4 -10 4 -26v-364q0 -35 -20 -38q-6 -1 -15 -1h-38v-129h269q162 0 226 22q54 19 93 61q89 97 89 268q0 321 -279 347q-26 2 -53 2h-345zM339 179v323q0 49 18 55q7 2 22 2h41q67 0 78 -88q3 -23 3 -121q0 -112 -7 -143q-18 -65 -75 -66h-44 q-30 0 -34 21q-2 7 -2 17zM0 -300v1300h761v-1300h-761z" glyph-name="D" horiz-adv-x="761" unicode="D"/>
<glyph d="M45 0h562v217h-129q-3 -20 -9 -39q-7 -25 -25 -31q-16 -6 -41 -6h-76v144h136v141h-136v133h80q36 0 44 -8q6 -8 10 -21q6 -23 8 -43h127l1 213h-552v-129h38q26 0 31 -13q4 -10 4 -26v-364q0 -35 -20 -38q-6 -1 -15 -1h-38v-129zM0 -300v1300h652v-1300h-652z" glyph-name="E" horiz-adv-x="652" unicode="E"/>
<glyph d="M45 700v-129h38q26 0 31 -13q4 -10 4 -26v-364q0 -35 -20 -38q-6 -1 -15 -1h-38v-129h355v129h-37q-26 0 -32 13q-4 10 -4 26v111h142v141h-142v139h91q34 0 42 -7q8 -8 12 -22q2 -10 6 -43h109v213h-542zM0 -300v1300h632v-1300h-632z" glyph-name="F" horiz-adv-x="632" unicode="F"/>
<glyph d="M694 0v174q0 42 22 50q9 2 21 2v128h-330v-128h18q40 -1 41 -22v-22q0 -34 -48 -51q-24 -8 -50 -8q-63 0 -80 56q-10 36 -10 137v72q0 102 12 136q20 52 76 53q67 0 79 -88q3 -22 3 -55h238q-3 117 -86 197q-90 86 -235 86q-147 0 -236 -108q-84 -101 -84 -259 q0 -259 182 -338q66 -29 142 -29q112 0 178 71h8l11 -54h128zM0 -300v1300h782v-1300h-782z" glyph-name="G" horiz-adv-x="782" unicode="G"/>
<glyph d="M45 0h322v129h-4q-26 0 -32 11q-4 9 -4 28v132h145v-132q0 -35 -20 -38q-6 -1 -15 -1h-5v-129h323v129h-38q-27 0 -33 16q-3 10 -3 23v364q0 36 25 39h11h38v129h-323v-129h5q31 0 34 -22q1 -6 1 -18v-91h-145v91q0 32 16 38q8 2 18 2h5v129h-321v-129h38q26 0 31 -13 q4 -10 4 -26v-364q0 -35 -20 -38q-6 -1 -15 -1h-38v-129zM0 -300v1300h800v-1300h-800z" glyph-name="H" horiz-adv-x="800" unicode="H"/>
<glyph d="M45 0h355v129h-37q-26 0 -32 13q-4 10 -4 26v364q0 35 21 38q6 1 15 1h37v129h-355v-129h38q26 0 31 -13q4 -10 4 -26v-364q0 -35 -20 -38q-6 -1 -15 -1h-38v-129zM0 -300v1300h445v-1300h-445z" glyph-name="I" horiz-adv-x="445" unicode="I"/>
<glyph d="M373 700h-346v-129h38q26 0 32 -13q4 -10 4 -26v-362q-1 -47 -36 -47q-31 1 -55 28v-143q46 -25 104 -25q106 0 151 63q45 64 45 192v293q0 30 12 36q9 4 22 4h29v129zM0 -300v1300h418v-1300h-418z" glyph-name="J" horiz-adv-x="418" unicode="J"/>
<glyph d="M422 700v-129h9q20 -1 21 -6q-1 -6 -24 -33l-96 -108h-5v114q0 29 23 32q6 1 13 1h13v129h-331v-129h38q26 0 31 -13q4 -10 4 -26v-364q0 -35 -20 -38q-6 -1 -15 -1h-38v-129h322v129h-7q-33 3 -33 41v52l57 65h10l48 -93q2 -5 4 -9t4 -7.5t3 -6l2 -5t2 -4t1.5 -3 t0.5 -2.5t0.5 -1.5t0.5 -1.5v-1q0 -20 -21 -24q-9 -1 -17 0v-129h344v129q-52 5 -97 92q-1 1 -1 2l-125 241l77 76q21 21 64 29q9 2 15 2h30v129h-307zM0 -300v1300h776v-1300h-776z" glyph-name="K" horiz-adv-x="776" unicode="K"/>
<glyph d="M57 0h564v234h-124q-4 -80 -37 -90q-10 -3 -38 -3h-83v391q9 38 32 39h35v129h-349v-129h38q26 0 31 -13q4 -10 4 -26v-364q0 -35 -20 -38q-6 -1 -15 -1h-38v-129zM0 -300v1300h631v-1300h-631z" glyph-name="L" horiz-adv-x="631" unicode="L"/>
<glyph d="M528 0h327v129h-28q-23 0 -30 9q-6 10 -6 30v363q0 30 13 36q9 4 23 4h28v129h-292l-111 -274h-15l-118 274h-274v-129h29q31 0 34 -22q1 -6 1 -18v-363q0 -35 -20 -38q-6 -1 -15 -1h-29v-129h234v129h-19q-32 0 -34 23v16v238h6l129 -297h89l122 302h11l-1 -243 q0 -35 -20 -38q-6 -1 -15 -1h-19v-129zM0 -300v1300h900v-1300h-900z" glyph-name="M" horiz-adv-x="900" unicode="M"/>
<glyph d="M306 700h-249v-129h27q28 0 32 -17q2 -8 2 -23v-363q0 -34 -17 -38q-6 -1 -17 -1h-27v-129h252v129h-28q-25 0 -30 12q-4 10 -4 27v207h6l222 -375h190v531q0 32 15 37q8 3 20 3h27v129h-252v-129h27q29 0 33 -19q2 -8 2 -21v-212h-6zM0 -300v1300h784v-1300h-784z" glyph-name="N" horiz-adv-x="784" unicode="N"/>
<glyph d="M369 717q-165 -1 -255 -127q-69 -99 -69 -240q1 -154 64 -244q90 -122 260 -123q171 1 259 123q64 95 65 244q-1 142 -69 240q-83 119 -237 127h-18zM278 316v67q0 124 30 165q23 28 61 29q76 0 88 -118q3 -30 3 -76v-67q0 -129 -33 -168q-22 -25 -58 -25q-75 0 -88 112 q-3 32 -3 81zM0 -300v1300h738v-1300h-738z" glyph-name="O" horiz-adv-x="738" unicode="O"/>
<glyph d="M327 168v83q202 -8 278 60q57 54 57 153q0 151 -118 202q-79 34 -232 34h-267v-129h38q26 0 31 -13q4 -10 4 -26v-364q0 -35 -20 -38q-6 -1 -15 -1h-38v-129h355v129h-37q-26 0 -32 13q-4 10 -4 26zM327 392v167q105 -2 109 -82q0 -78 -83 -84q-12 -1 -26 -1zM0 -300 v1300h683v-1300h-683z" glyph-name="P" horiz-adv-x="683" unicode="P"/>
<glyph d="M350 -20v4q192 -5 279 156q38 71 45 150q1 12 1 60q-1 141 -68 240q-78 112 -222 125q-17 2 -34 2q-186 0 -274 -158q-38 -70 -47 -150q-3 -31 -3 -59q1 -151 65 -244q72 -100 203 -120v-3q-70 -10 -117 -109l69 -50q5 9 11 13q10 6 22 6q47 0 96 -32q56 -36 72 -42 q19 -7 38 -7q75 0 134 126q1 1 1 2l-73 52q-19 -27 -44 -28q-31 1 -85 32q-9 5 -22 13q-28 17 -47 21zM260 316v67q0 132 35 171q22 23 56 23q84 -1 90 -141q1 -19 1 -53v-67q0 -166 -57 -187q-13 -5 -34 -5q-45 0 -64 31q-27 44 -27 161zM0 -300v1300h702v-1300h-702z" glyph-name="Q" horiz-adv-x="702" unicode="Q"/>
<glyph d="M45 700v-128h28q28 0 33 -19q2 -10 2 -37v-332q0 -48 -14 -53q-6 -2 -21 -2h-28v-129h301v129q-31 3 -33 39v106h56l39 -75q17 -34 17 -45q-2 -23 -37 -25v-129h324v129q-42 5 -72 58q-4 8 -14 26q-9 17 -13 25l-58 102q75 38 91 119q3 18 3 35q0 199 -239 206h-16h-349z M313 559h18q68 0 81 -39q4 -12 4 -26q-6 -76 -81 -79h-22v144zM0 -300v1300h722v-1300h-722z" glyph-name="R" horiz-adv-x="722" unicode="R"/>
<glyph d="M251 198h-224q-1 -206 266 -215h30q245 0 296 157q12 37 12 78q0 109 -98 166q-35 20 -93 41q-30 11 -75 25q-58 17 -70 31q-11 13 -11 38q2 57 59 58q61 -9 64 -60v-24h222q8 217 -263 224h-34q-243 0 -280 -164q-6 -28 -6 -60q0 -122 124 -186q12 -7 28 -14 q23 -10 71 -28q89 -33 110 -55q14 -15 14 -32q0 -46 -53 -53q-8 -1 -17 -1q-66 0 -73 51q-1 12 1 23zM0 -300v1300h658v-1300h-658z" glyph-name="S" horiz-adv-x="658" unicode="S"/>
<glyph d="M27 700v-235h118q11 78 24 88q8 6 41 6h22v-392q0 -35 -21 -38q-6 -1 -15 -1h-38v-129h356v129h-38q-26 0 -31 13q-4 10 -4 26v392h22q35 0 39 -2q9 -6 18 -53q6 -31 8 -39h118v235h-619zM0 -300v1300h673v-1300h-673z" glyph-name="T" horiz-adv-x="673" unicode="T"/>
<glyph d="M380 700h-335v-129h29q7 0 12.5 -1.5t9 -2.5t6 -4.5t4 -5t2 -7t0.5 -6.5v-7v-6v-221q0 -143 40 -211q68 -116 268 -116q179 0 222 158q11 43 11 94v280q0 41 8 49q9 7 28 7h28v129h-266v-129h28q29 0 33 -19q2 -8 2 -21v-221q0 -120 -24 -156q-22 -31 -67 -31 q-74 0 -92 67q-10 35 -10 120l-1 221q0 35 23 39q6 1 13 1h28v129zM0 -300v1300h758v-1300h-758z" glyph-name="U" horiz-adv-x="758" unicode="U"/>
<glyph d="M288 0h140l164 490q24 72 48 79q6 2 17 2h26v129h-259v-129h17q19 0 22 -3q2 -4 2 -8q-1 -7 -12 -41l-56 -170h-12l-70 178q-11 27 -11 31q4 10 15 13h28v129h-337v-129h13q44 0 59 -42q2 -5 5 -15t5 -15zM0 -300v1300h693v-1300h-693z" glyph-name="V" horiz-adv-x="693" unicode="V"/>
<glyph d="M366 700h-356l1 -129h9q38 0 55 -24q12 -17 32 -71l181 -476h144l106 300h7l118 -300h143l158 468q28 82 43 95q11 8 34 8h17v129h-300v-129h24q18 0 26.5 -2t10 -4t1.5 -7v-1q0 -7 -14 -47q0 -2 -1 -4l-43 -131h-9l-129 325h-114l-112 -332h-11l-55 137q-18 46 -18 54 q1 11 13 12h39v129zM0 -300v1300h1068v-1300h-1068z" glyph-name="W" horiz-adv-x="1068" unicode="W"/>
<glyph d="M372 700h-339v-129h19q21 0 31 -10q10 -11 36 -51l118 -181l-85 -129q-30 -45 -41 -54q-21 -17 -50 -17h-27v-129h291v129q-22 0 -23 13q0 10 9 23l46 69h6l40 -61q12 -16 13 -28q-1 -18 -25 -16v-129h352v129h-27q-29 0 -66 60q-3 5 -4 7l-125 192l73 110q32 48 46 59 q17 14 34 14h27v129h-271v-129h13q10 -2 11 -9q-1 -7 -12 -23l-42 -63h-7l-40 61q-9 14 -9 19q1 14 16 15h12v129zM0 -300v1300h776v-1300h-776z" glyph-name="X" horiz-adv-x="776" unicode="X"/>
<glyph d="M517 0v129h-38q-20 0 -24 6q-5 8 -5 22v58l118 275q23 54 27 60q16 20 39 21h21v129h-257v-129h21q21 -1 21 -10q0 -6 -20 -57l-40 -94h-5l-56 108q-16 32 -16 42t18 11h11h11v129h-333v-129h6q26 0 38 -14q13 -15 36 -58l151 -288v-54q0 -28 -32 -28h-1h-34v-129h343z M0 -300v1300h665v-1300h-665z" glyph-name="Y" horiz-adv-x="665" unicode="Y"/>
<glyph d="M607 700h-551v-257h122l10 56q7 41 9 44q10 16 52 16h133l-337 -398v-161h580v257h-122l-9 -56q-8 -49 -23 -56q-9 -4 -39 -4h-152l327 389v170zM0 -300v1300h670v-1300h-670z" glyph-name="Z" horiz-adv-x="670" unicode="Z"/>
<glyph d="M57 -247h273v103h-57q-31 0 -35 23q-1 7 -1 17v678q0 31 15 37q8 4 21 4h57v102h-273v-964zM0 -300v1300h457v-1300h-457z" glyph-name="bracketleft" horiz-adv-x="457" unicode="["/>
<glyph d="M470 -210l127 69l-401 880l-128 -70zM0 -300v1300h665v-1300h-665z" glyph-name="backslash" horiz-adv-x="665" unicode="\"/>
<glyph d="M400 -247v964h-273v-102h57q30 0 35 -22q1 -7 1 -19v-678q0 -34 -21 -39q-7 -1 -15 -1h-57v-103h273zM0 -300v1300h457v-1300h-457z" glyph-name="bracketright" horiz-adv-x="457" unicode="]"/>
<glyph d="M316 568l100 -102h148l-248 251l-248 -251h148zM0 -300v1300h638v-1300h-638z" glyph-name="asciicircum" horiz-adv-x="638" unicode="^"/>
<glyph d="M10 -82v-128h619v128h-619zM0 -300v1300h639v-1300h-639z" glyph-name="underscore" horiz-adv-x="639" unicode="_"/>
<glyph d="M212 801h-191l137 -178l70 1zM0 -300v1300h320v-1300h-320z" glyph-name="grave" horiz-adv-x="320" unicode="`"/>
<glyph d="M571 0v126q-37 -2 -39 36v177q0 102 -35 145q-47 57 -170 57q-232 0 -256 -135q-3 -17 -3 -35h158q0 43 44 52q9 2 18 2q59 -6 64 -48v-53q-176 2 -245 -44q-61 -43 -62 -129q0 -99 75 -140q41 -22 97 -22q89 1 152 56l9 1q13 -57 109 -57q43 0 84 11zM352 233v-98 q0 -25 -41 -29q-6 -1 -10 -1q-44 0 -52 42q-1 6 -1 11q0 46 48 66q26 10 56 9zM0 -300v1300h611v-1300h-611z" glyph-name="a" horiz-adv-x="611" unicode="a"/>
<glyph d="M57 0h197l17 45h5q44 -56 127 -56q144 0 198 146q24 64 24 132q0 133 -67 209q-57 65 -153 65q-64 -1 -111 -33h-7v292h-230v-105h19q26 0 30 -17q1 -7 1 -14v-527q-4 -30 -31 -32h-19v-105zM287 126v249q7 42 52 49q6 1 12 1q48 0 59 -56q3 -18 5 -118v-5v-24 q-3 -90 -25 -108q-13 -9 -36 -9q-44 1 -67 21zM0 -300v1300h658v-1300h-658z" glyph-name="b" horiz-adv-x="658" unicode="b"/>
<glyph d="M558 212h-194q1 -106 -60 -107q-39 0 -52 42q-10 32 -10 93v51q0 92 23 118q15 16 39 16q39 0 54 -48q6 -24 5 -51h192q-11 111 -90 169q-64 46 -162 46q-137 -1 -211 -95q-51 -65 -58 -160q-1 -11 -1 -21q1 -109 55 -183q52 -69 158 -88q29 -5 58 -5q154 0 220 105 q33 54 34 118zM0 -300v1300h591v-1300h-591z" glyph-name="c" horiz-adv-x="591" unicode="c"/>
<glyph d="M299 800v-105h39q26 0 30 -17q1 -7 1 -14v-146h-7q-38 23 -86 23q-116 0 -185 -90q-58 -76 -58 -186q0 -205 123 -260q35 -16 74 -16q83 1 132 53h5l7 -42h241v105h-34q-23 0 -28 10q-4 8 -4 22v663h-250zM369 388v-253q-25 -28 -59 -30q-55 0 -65 63q-3 21 -3 83v27 q0 85 5 106q13 45 58 46q53 -2 64 -42zM0 -300v1300h672v-1300h-672z" glyph-name="d" horiz-adv-x="672" unicode="d"/>
<glyph d="M546 163h-170q-9 -58 -66 -58q-55 0 -67 47q-4 19 -4 50v25h314q-3 172 -89 255q-62 59 -160 59q-138 -1 -212 -97q-59 -77 -59 -183q1 -108 55 -180q63 -82 186 -91q13 -1 24 -1q171 0 234 137q8 18 14 37zM376 332h-137q0 72 50 89q11 4 21 4q53 0 64 -62q3 -16 2 -31z M0 -300v1300h586v-1300h-586z" glyph-name="e" horiz-adv-x="586" unicode="e"/>
<glyph d="M67 0h290v105h-21q-36 9 -39 32v278h77v116h-77v71q0 58 4 69q8 14 22 15q21 0 24 -36q1 -3 1 -10q1 -13 2 -19h104v147q-59 34 -120 34q-45 0 -80.5 -9t-57.5 -22t-38.5 -32.5t-24 -35.5t-11.5 -37.5t-4.5 -31t-0.5 -22.5v-1v-80h-60v-116h60v-278q0 -27 -18 -31 q-6 -1 -15 -1h-17v-105zM0 -300v1300h470v-1300h-470z" glyph-name="f" horiz-adv-x="470" unicode="f"/>
<glyph d="M391 -210h137q50 73 50 131q0 84 -59 108q-41 16 -145 16q-11 0 -32 -1q-20 -1 -30 -1q-70 0 -89 7q-29 13 -30 44q0 26 32 33h2q38 -11 81 -11q139 0 200 95q32 50 32 111q0 52 -20 90q43 26 56 -36l2 -10h85v134q-73 42 -142 14q-30 -13 -51 -36q-69 63 -166 63 q-160 0 -226 -102q-33 -52 -33 -114q0 -89 73 -149q8 -7 16 -13v-4q-60 -29 -76 -80q-4 -14 -4 -27q0 -146 137 -172q28 -5 60 -5q16 0 79 5q30 2 46 0q29 -9 31 -27q0 -31 -16 -63zM228 307v38q0 79 34 95q13 6 30 6q52 0 62 -54q3 -20 3 -48v-35q0 -91 -44 -100 q-9 -2 -21 -2q-38 0 -52 26q-12 25 -12 74zM0 -300v1300h696v-1300h-696z" glyph-name="g" horiz-adv-x="696" unicode="g"/>
<glyph d="M287 800h-230v-105h18q25 0 30 -15q2 -7 2 -16v-527q-9 -30 -32 -32h-18v-105h265v105h-4q-24 0 -28 13q-3 8 -3 19v213q0 3 1 10v9v14q3 26 31 38q11 4 24 4q56 0 60 -51q1 -8 1 -19v-218q0 -30 -22 -32q-6 -1 -11 0v-105h263v105h-19q-29 5 -31 27v271q0 108 -85 131 q-27 7 -62 7q-69 -1 -145 -39h-5v298zM0 -300v1300h679v-1300h-679z" glyph-name="h" horiz-adv-x="679" unicode="h"/>
<glyph d="M61 0h274v105h-18q-27 0 -31 18q-1 6 -1 14v393h-228v-105h17q30 -8 31 -32v-256q0 -22 -9 -27q-8 -5 -22 -5h-13v-105zM0 -300v1300h392v-1300h-392zM96 703q0 -56 47 -85q25 -15 53 -15q56 0 85 47q15 25 15 53q0 56 -47 85q-25 15 -53 15q-56 0 -85 -47 q-15 -25 -15 -53z" glyph-name="i" horiz-adv-x="392" unicode="i"/>
<glyph d="M315 530h-250v-105h36q31 -8 34 -32v-431q0 -55 -24 -65q-6 -2 -11 -3q-9 -1 -17 0q-20 3 -36 15l-20 -136q45 -10 93 -10q183 0 194 181q1 14 1 31v555zM0 -300v1300h404v-1300h-404zM108 701q0 -56 47 -85q25 -15 53 -15q56 0 85 47q15 25 15 53q0 56 -47 85 q-25 15 -53 15q-56 0 -85 -47q-15 -25 -15 -53z" glyph-name="j" horiz-adv-x="404" unicode="j"/>
<glyph d="M281 800h-230v-105h19q26 0 30 -17q1 -7 1 -14v-527q-10 -29 -31 -32h-19v-105h265v105h-4q-24 0 -28 13q-3 8 -3 19v36l62 59l45 -93q2 -4 4 -11q6 -11 5 -8v-5q-4 -10 -24 -10h-11v-105h306v105q-52 4 -73 29q-10 13 -21 36l-94 195q55 53 97 59q8 1 16 1h31v105h-262 v-105h7q22 -1 23 -8q0 -5 -17 -19q-2 -1 -3 -2l-91 -91v495zM0 -300v1300h701v-1300h-701z" glyph-name="k" horiz-adv-x="701" unicode="k"/>
<glyph d="M287 800h-230v-105h18q25 0 30 -15q2 -7 2 -16v-527q-10 -29 -31 -32h-19v-105h275v105h-13q-25 0 -30 15q-2 8 -2 17v663zM0 -300v1300h389v-1300h-389z" glyph-name="l" horiz-adv-x="389" unicode="l"/>
<glyph d="M58 0h265v105h-9q-5 0 -8.5 0.5t-6.5 2.5t-5 3t-3 4l-1.5 4.5t-1 5t-0.5 4.5v5v3v201q0 61 21 77q13 10 33 10q62 -1 62 -82v-206q0 -27 -16 -31q-5 -1 -9 -1h-8v-105h247v105h-8q-25 2 -26 32v201q0 68 29 82q11 5 25 5q50 0 59 -45q3 -16 3 -37v-206q-8 -29 -29 -32h-6 v-105h263v105h-16q-25 0 -30 16q-2 7 -2 16v266q0 116 -103 134q-22 4 -46 4q-80 0 -146 -42q-7 -5 -13 -9l-8 1q-35 46 -108 50h-18q-72 -1 -150 -39v28h-231v-105h18q28 0 32 -18q1 -6 1 -14v-256q0 -26 -15 -30q-7 -2 -16 -2h-19v-105zM0 -300v1300h974v-1300h-974z" glyph-name="m" horiz-adv-x="974" unicode="m"/>
<glyph d="M57 0h265v105h-4q-11 0 -18 2.5t-9.5 8t-3 9t-0.5 11.5v1v222q3 65 68 66q48 0 54 -52q1 -7 1 -14v-222q0 -25 -13 -30q-6 -2 -13 -2h-7v-105h263v105h-19q-27 0 -30 20q-1 6 -1 12v230q0 81 -12 111q-25 62 -109 63q-107 -1 -177 -51h-5v40h-230v-105h18q25 0 30 -16 q2 -7 2 -16v-256q-9 -30 -32 -32h-18v-105zM0 -300v1300h685v-1300h-685z" glyph-name="n" horiz-adv-x="685" unicode="n"/>
<glyph d="M304 541q-136 0 -212 -95q-51 -65 -58 -160q-1 -11 -1 -21q1 -109 55 -183q53 -69 162 -88q28 -5 54 -5q103 0 177 55q23 18 39 38q55 75 55 183q0 101 -54 174q-3 4 -5 7q-77 94 -212 95zM242 240v50q0 103 32 126q13 9 30 9q55 0 61 -94q1 -18 1 -41v-50 q0 -121 -45 -133q-8 -2 -17 -2q-38 0 -51 40q-11 33 -11 95zM0 -300v1300h608v-1300h-608z" glyph-name="o" horiz-adv-x="608" unicode="o"/>
<glyph d="M287 -73v93q43 -31 95 -31q154 0 213 147q26 64 26 132q0 145 -71 218q-55 55 -143 55q-54 0 -99 -34q-7 -6 -32 -26h-4l-18 49h-197v-105h17q27 0 31 -18q2 -7 2 -14v-466q-7 -30 -33 -32h-17v-105h300v105h-39q-26 0 -30 19q-1 6 -1 13zM287 142v231q15 51 63 52 q48 0 58 -46q4 -21 4 -92v-51q0 -99 -32 -121q-15 -10 -37 -10q-37 1 -56 37zM0 -300v1300h654v-1300h-654z" glyph-name="p" horiz-adv-x="654" unicode="p"/>
<glyph d="M597 530h-197l-18 -49h-4q-49 39 -62 46q-28 14 -69 14q-145 0 -194 -144q-20 -58 -20 -129q0 -172 111 -243q56 -36 128 -36q53 0 95 31v-93q0 -29 -20 -32h-11h-38v-105h299v105h-17q-27 0 -31 18q-2 7 -2 14v466q0 32 32 32h1h17v105zM367 373v-231q-21 -36 -56 -37 q-52 0 -64 59q-5 27 -5 72v51q0 84 8 106q14 31 54 32q44 0 59 -39q3 -7 4 -13zM0 -300v1300h654v-1300h-654z" glyph-name="q" horiz-adv-x="654" unicode="q"/>
<glyph d="M57 0h284v105h-23q-11 0 -18 2.5t-9.5 8t-3 9t-0.5 11.5v1v231q0 52 32 56q5 1 9 1q34 0 43 -40q3 -16 4 -38h105v171q-27 23 -63 23q-58 -1 -125 -51h-5v40h-230v-105h18q25 0 30 -16q2 -7 2 -16v-256q-9 -30 -32 -32h-18v-105zM0 -300v1300h509v-1300h-509z" glyph-name="r" horiz-adv-x="509" unicode="r"/>
<glyph d="M205 147h-172q2 -119 127 -149q38 -9 86 -9q194 0 237 123q10 30 10 61q0 103 -106 145q-19 8 -98 29q-53 14 -63 30q-5 8 -5 17q2 30 49 31q52 -2 50 -44h172q-5 127 -123 152q-38 8 -99 8q-145 0 -200 -82q-24 -38 -24 -86q0 -90 86 -139q37 -21 104 -44q66 -23 79 -41 q5 -8 5 -15q-1 -29 -58 -29q-54 0 -57 40v2zM0 -300v1300h526v-1300h-526z" glyph-name="s" horiz-adv-x="526" unicode="s"/>
<glyph d="M308 762h-104q-16 -223 -171 -232v-116h95v-205q0 -130 31 -175q32 -45 104 -45q108 2 165 100l-47 53q-33 -36 -49 -37q-23 2 -24 45v264h114v116h-114v232zM0 -300v1300h455v-1300h-455z" glyph-name="t" horiz-adv-x="455" unicode="t"/>
<glyph d="M622 0v105h-19q-24 0 -28 13q-3 8 -3 19v393h-224v-105h13q24 0 29 -16q2 -7 2 -16v-206q0 -58 -28 -70q-12 -4 -28 -4q-54 0 -60 50q-1 9 -1 19v348h-230v-105h19q28 -7 31 -28v-222q0 -81 10 -109q6 -18 15 -30q38 -46 115 -47q92 1 157 57l12 -46h218zM0 -300v1300 h679v-1300h-679z" glyph-name="u" horiz-adv-x="679" unicode="u"/>
<glyph d="M333 530h-312v-105h28q25 0 36 -27q1 -2 4 -9l159 -389h154l141 359q2 4 5 15q20 49 36 51h33v105h-238v-105h30q11 -1 12 -13q0 -10 -11 -36l-53 -135h-7l-58 140q-10 26 -10 32q2 12 21 12h30v105zM0 -300v1300h627v-1300h-627z" glyph-name="v" horiz-adv-x="627" unicode="v"/>
<glyph d="M21 530v-105h22q30 0 42 -22q5 -9 11 -26l140 -377h156l83 204l90 -204h160l102 359q16 57 37 64q6 2 14 2h22v105h-241v-105h18q23 -1 25 -4q1 -4 0 -8q-2 -7 -5 -14q-4 -10 -4 -16q0 -4 -1 -7l-35 -122l-123 276h-86l-114 -284l-51 135q-13 32 -13 37q1 4 6 7h4h23h20 v105h-302zM0 -300v1300h910v-1300h-910z" glyph-name="w" horiz-adv-x="910" unicode="w"/>
<glyph d="M292 530h-270v-105h9q23 0 42 -26q4 -4 7 -9l93 -132l-71 -117q-18 -29 -34 -33q-11 -3 -28 -3h-19v-105h237v105h-10q-11 1 -12 7q0 2 8 15q1 1 1 2l37 60l47 -60q7 -9 7 -16q-2 -7 -10 -8h-17v-105h282v105h-10q-17 0 -26 9q-8 8 -30 37l-99 129l69 113q16 26 42 30 q8 1 28 2v105h-227v-105h16q2 -1 4 -5q0 -3 -7 -14l-32 -53h-2l-37 53q-7 11 -7 12q1 5 7 7h12v105zM0 -300v1300h612v-1300h-612z" glyph-name="x" horiz-adv-x="612" unicode="x"/>
<glyph d="M603 530h-226v-105h33q10 -1 11 -13q0 -7 -5 -23l-55 -172h-10l-71 164q-8 16 -9 32q2 12 20 12h32v105h-313v-105h11q25 0 32 -8q8 -9 17 -30l166 -388q-7 -85 -64 -85q-22 0 -42 10l-1 -153q34 -18 66 -18q95 0 149 84q29 46 63 143l132 382q17 50 22 55q7 8 21 8h21 v105zM0 -300v1300h613v-1300h-613z" glyph-name="y" horiz-adv-x="613" unicode="y"/>
<glyph d="M64 530v-201h106l7 38q6 33 8 36q9 11 41 11h90l-265 -294v-120h465v201h-105l-7 -38q-7 -36 -13 -41q-9 -6 -36 -6h-107l268 288v126h-452zM0 -300v1300h567v-1300h-567z" glyph-name="z" horiz-adv-x="567" unicode="z"/>
<glyph d="M68 304v-132q63 0 95 -55q21 -37 21 -92q0 -37 -4 -97v-20q0 -94 79 -128q65 -28 186 -27v105q-82 17 -85 80q0 15 1 36q3 36 3 84q0 132 -124 173q-7 2 -13 4v6q136 40 137 177q0 48 -3 84q-1 21 -1 36q0 62 62 76q11 3 23 4v105q-209 2 -252 -86q-13 -29 -13 -69 q0 -19 1 -30q3 -23 3 -87q0 -107 -72 -138q-22 -9 -44 -9zM0 -300v1300h525v-1300h-525z" glyph-name="braceleft" horiz-adv-x="525" unicode="{"/>
<glyph d="M68 -280h112v1053h-112v-1053zM0 -300v1300h248v-1300h-248z" glyph-name="bar" horiz-adv-x="248" unicode="|"/>
<glyph d="M445 172v132q-63 0 -95 55q-21 37 -21 92q0 37 4 97v20q0 94 -79 128q-65 28 -186 27v-105q82 -17 85 -80q0 -15 -1 -36q-3 -37 -3 -84q0 -132 124 -173q7 -2 13 -4v-6q-136 -40 -137 -177q0 -48 3 -84q1 -21 1 -36q0 -62 -62 -76q-11 -3 -23 -4v-105q209 -2 252 86 q13 29 13 69q0 19 -1 30q-3 23 -3 87q0 107 72 138q22 9 44 9zM0 -300v1300h525v-1300h-525z" glyph-name="braceright" horiz-adv-x="525" unicode="}"/>
<glyph d="M652 420l-92 27q-25 -52 -79 -53q-42 0 -136 34q-1 1 -2 1q-52 18 -95 18q-101 -1 -180 -143l93 -27q25 48 75 49q49 0 118 -26q59 -23 70 -25q18 -3 48 -3q91 0 163 116q9 17 17 32zM0 -300v1300h720v-1300h-720z" glyph-name="asciitilde" horiz-adv-x="720" unicode="~"/>
<glyph d="M75 598q0 -64 52 -98q30 -19 65 -19q70 0 102 61q14 27 14 56q0 59 -50 95q-30 21 -66 21q-55 0 -91 -42q-26 -31 -26 -74zM113 438l-43 -383q-4 -35 5 -47q16 -19 61 -19h56h54q46 0 59 17q12 17 8 49l-43 383h-157zM0 -300v1300h382v-1300h-382z" glyph-name="exclamdown" horiz-adv-x="382" unicode="¡"/>
<glyph d="M558 213h-194q-2 -103 -60 -108q-54 0 -61 88q-1 19 -1 47v51q0 92 23 118q15 16 39 16q39 0 54 -49q6 -23 5 -51h192q-13 120 -104 179q-44 28 -95 33v129h-111v-130h-3q-1 -1 -2 -1q-142 -30 -189 -165q-18 -51 -18 -105q0 -162 112 -235q46 -29 100 -37v-131h111v130 q94 7 153 80q47 60 49 141zM0 -300v1300h591v-1300h-591z" glyph-name="cent" horiz-adv-x="591" unicode="¢"/>
<glyph d="M653 506v118q-99 92 -238 93q-251 0 -245 -270v-3h-90v-140h95q10 -146 -76 -214l34 -108q98 37 103 38q24 6 51 6q57 0 133 -21q84 -23 132 -23q125 0 145 136q5 36 3 76h-119q4 -70 -31 -71q-5 0 -49 25q-45 26 -73 26q-35 -1 -67 -38l-4 9q29 51 29 113v46h141v140 h-149q-2 27 -4 44q-2 11 -2 22q0 60 43 68q8 1 17 1q42 0 52 -30q5 -14 7 -43h162zM0 -300v1300h780v-1300h-780z" glyph-name="sterling" horiz-adv-x="780" unicode="£"/>
<glyph d="M128 680l-60 -59l100 -100q-57 -79 -57 -172q1 -95 57 -173l-100 -100l60 -60l99 99q83 -57 174 -57q95 1 173 57l100 -99l58 60l-99 99q57 78 58 174q0 95 -58 172l100 100l-59 60l-101 -100q-79 58 -172 58q-91 -1 -174 -58zM227 349q0 81 64 133q49 40 110 40 q82 0 134 -64q39 -49 39 -109q0 -83 -65 -135q-48 -39 -108 -39q-81 0 -134 64q-40 49 -40 110zM0 -300v1300h801v-1300h-801z" glyph-name="currency" horiz-adv-x="801" unicode="¤"/>
<glyph d="M612 503v101q-64 93 -197 110q-24 3 -47 3q-147 0 -215 -87q-33 -43 -33 -87q1 -96 74 -151v-11q-113 -56 -114 -150q0 -74 74 -123q15 -10 38 -22q16 -9 54 -26q94 -42 121 -72q21 -25 21 -51q0 -48 -58 -60q-12 -2 -23 -2q-60 0 -69 48q-2 13 -2 32v30h-150v-102 q47 -85 170 -107q31 -6 59 -6q153 0 232 80q46 47 46 102q-1 70 -46 112v5q70 64 86 140q3 16 3 30q0 78 -72 126q-19 12 -93 50q-94 48 -95 49q-64 39 -65 82q0 46 43 60q16 5 34 5q59 0 71 -46q6 -22 4 -62h149zM444 133l-132 74q-57 32 -65 59q-2 7 -2 13q0 31 23 45 q5 3 8 4l94 -56q10 -6 30 -17q56 -31 66 -49q5 -9 5 -18q-1 -30 -27 -55zM0 -300v1300h716v-1300h-716z" glyph-name="section" horiz-adv-x="716" unicode="§"/>
<glyph d="M0 -300v1300h579v-1300h-579zM56 714q0 -56 47 -85q25 -15 53 -15q56 0 85 47q15 25 15 53q0 56 -47 85q-25 15 -53 15q-56 0 -85 -47q-15 -25 -15 -53zM323 714q0 -56 47 -85q25 -15 53 -15q56 0 85 47q15 25 15 53q0 56 -47 85q-25 15 -53 15q-56 0 -85 -47 q-15 -25 -15 -53z" glyph-name="dieresis" horiz-adv-x="579" unicode="¨"/>
<glyph d="M68 350q0 -146 101 -252q99 -104 240 -114q14 -1 26 -1q144 0 251 100q105 98 115 240q1 14 1 27q0 146 -101 252q-99 105 -242 114q-12 1 -24 1q-144 0 -251 -99q-105 -99 -115 -242q-1 -14 -1 -26zM156 350q0 120 87 203q82 76 192 76q118 0 201 -85q78 -82 78 -194 q0 -120 -87 -202q-81 -76 -192 -76q-119 0 -202 85q-77 81 -77 193zM626 312h-141q-3 -66 -30 -76q-7 -2 -15 -2q-35 0 -42 51q-3 20 -3 47v37q6 92 45 97q33 0 42 -40q2 -15 2 -32h139q-6 78 -66 122q-48 34 -118 34q-100 -1 -153 -69q-42 -55 -42 -132q1 -80 40 -132 q53 -68 156 -68q163 0 186 160v3zM0 -300v1300h870v-1300h-870z" glyph-name="copyright" horiz-adv-x="870" unicode="©"/>
<glyph d="M68 306l172 -306l126 24l-108 270l143 258l-134 40zM369 298l148 -265l135 26l-93 229l106 218l-125 37zM0 -300v1300h768v-1300h-768z" glyph-name="guillemotleft" horiz-adv-x="768" unicode="«"/>
<glyph d="M470 163h129v242h-531v-129h402v-113zM0 -300v1300h667v-1300h-667z" glyph-name="logicalnot" horiz-adv-x="667" unicode="¬"/>
<glyph d="M68 350q0 -146 101 -252q99 -105 241 -114q13 -1 25 -1q146 0 252 100q105 100 114 244q1 12 1 23q0 146 -101 252q-99 105 -241 114q-13 1 -25 1q-146 0 -252 -101q-105 -99 -114 -241q-1 -13 -1 -25zM154 350q0 119 86 202q83 78 195 78q119 0 202 -86q79 -82 79 -194 q0 -118 -85 -201q-83 -80 -196 -80q-119 0 -202 87q-79 82 -79 194zM276 537v-65h14q15 -2 18 -11v-18v-170v-16q-2 -12 -18 -12h-14v-65h154v65q-15 2 -17 12v9q0 1 -0.5 3.5t-0.5 3.5v47h30l19 -39q1 -2 3 -5q6 -9 6 -18q-1 -8 -8 -11h-4q-4 -1 -6 -2v-65h173v65 q-5 2 -10 2h-5q-19 2 -43 47q-1 2 -1 3l-28 58q46 27 47 78q0 78 -71 96q-33 8 -107 8h-131zM412 392v72q47 1 53 -24q1 -5 1 -10q-2 -41 -54 -38zM0 -300v1300h870v-1300h-870z" glyph-name="registered" horiz-adv-x="870" unicode="®"/>
<glyph d="M68 572q0 -72 58 -116q39 -30 88 -30q72 0 116 58q30 40 30 88q0 75 -61 118q-39 27 -85 27q-76 0 -119 -59q-27 -38 -27 -86zM151 572q0 44 41 60q12 4 22 4q34 0 54 -29q10 -16 10 -35q0 -44 -41 -59q-12 -4 -23 -4q-41 0 -57 36q-6 13 -6 27zM0 -300v1300h428v-1300 h-428z" glyph-name="degree" horiz-adv-x="428" unicode="°"/>
<glyph d="M392 175v195h195v128h-195v195h-128v-195h-196v-128h196v-195h128zM68 0h519v129h-519v-129zM0 -300v1300h655v-1300h-655z" glyph-name="plusminus" horiz-adv-x="655" unicode="±"/>
<glyph d="M142 801l-15 -177l71 -1l135 178h-191zM0 -300v1300h343v-1300h-343z" glyph-name="acute" horiz-adv-x="343" unicode="´"/>
<glyph d="M561 -247h125v822h55v125h-387q-134 0 -185 -51q-42 -43 -42 -119q0 -103 81 -139q37 -16 87 -16h18v-622h125v822h123v-822zM0 -300v1300h868v-1300h-868z" glyph-name="paragraph" horiz-adv-x="868" unicode="¶"/>
<glyph d="M0 -300v1300h324v-1300h-324zM57 708q0 -56 47 -87q27 -17 57 -17q56 0 87 47q17 27 17 57q0 56 -47 87q-27 17 -57 17q-56 0 -87 -47q-17 -27 -17 -57z" glyph-name="cedilla" horiz-adv-x="324" unicode="¸"/>
<glyph d="M699 306l-199 286l-134 -40l143 -258l-107 -270l126 -24zM398 298l-170 245l-125 -37l105 -218l-92 -229l135 -26zM0 -300v1300h767v-1300h-767z" glyph-name="guillemotright" horiz-adv-x="767" unicode="»"/>
<glyph d="M443 601q0 53 -41 88q-32 28 -76 28q-63 0 -97 -51q-19 -30 -19 -65q0 -62 51 -97q30 -20 65 -20q61 0 96 51q21 31 21 66zM584 249h-168q-5 -82 -20 -104q-16 -22 -46 -22q-57 6 -60 62q0 45 55 90q2 2 7 6q8 6 11 9q39 34 50 75q8 32 6 77h-152q-8 -33 -56 -59l-64 -34 q-76 -48 -79 -149v-10q0 -75 55 -131q70 -70 202 -70q175 0 236 127q28 62 23 133zM0 -300v1300h652v-1300h-652z" glyph-name="questiondown" horiz-adv-x="652" unicode="¿"/>
<glyph d="M546 700h-396v-129h17q41 -2 42 -14q-1 -8 -8 -33l-97 -310q-20 -64 -36 -76q-12 -9 -31 -9h-16v-129h268v129h-10q-28 2 -29 25q0 7 6 24h207q7 -30 7 -33t-1 -5.5t-2 -4.5t-3.5 -3t-3.5 -1.5t-4.5 -1t-4.5 -0.5h-5h-3h-24v-129h334v129h-15q-31 0 -42 30q-4 11 -9 29z M361 519h5l56 -200h-122zM155 839q0 -63 56 -89q21 -10 43 -10q60 0 88 55q11 22 11 44q0 54 -46 83q-25 16 -53 16q-51 0 -81 -40q-18 -25 -18 -59zM422 839q0 -55 46 -84q25 -15 53 -15q55 0 84 47q15 24 15 52q0 55 -46 84q-25 15 -53 15q-55 0 -84 -46q-15 -25 -15 -53z M0 -300v1300h774v-1300h-774z" glyph-name="Adieresis" horiz-adv-x="774" unicode="Ä"/>
<glyph d="M934 700h-688v-129h18q28 -1 33 -6q2 -3 0 -10q-2 -5 -15 -29l-182 -335q-24 -45 -44 -55q-14 -7 -31 -7h-15v-129h282v129h-10q-20 0 -24 8q-2 5 -2 10t9 25l3 6h192v-8q0 -26 -6 -32q-9 -9 -29 -9h-28v-129h546v217h-128q-7 -31 -9 -38q-8 -28 -35 -35q-13 -3 -31 -3 h-71v144h135v141h-135v133h75q36 0 45 -11q6 -8 9 -18q0 -2 7 -44h129v214zM455 519h5v-200h-116zM0 -300v1300h988v-1300h-988z" glyph-name="AE" horiz-adv-x="988" unicode="Æ"/>
<glyph d="M680 280h-237q3 -157 -92 -157q-61 0 -79 56q-12 40 -12 174q0 120 9 156q18 67 80 68q57 0 73 -57q7 -29 10 -86h237q-3 131 -102 212q-89 71 -219 71q-147 0 -237 -108q-84 -101 -84 -259q0 -273 199 -346q14 -5 28 -9v-6l-9 -6v-62q88 12 103 -39q2 -8 2 -17 q0 -40 -48 -54q-20 -5 -45 -5q-13 0 -25 3l-17 -63q44 -28 119 -28q105 0 144 86q15 32 15 66q0 60 -45 95q-15 11 -32 17l-1 5q136 19 210 124q51 74 55 169zM0 -300v1300h707v-1300h-707z" glyph-name="Ccedilla" horiz-adv-x="707" unicode="Ç"/>
<glyph d="M45 700v-129h38q26 0 31 -13q4 -10 4 -26v-364q0 -35 -20 -38q-6 -1 -15 -1h-38v-129h562v217h-129q-4 -22 -8 -39q-8 -27 -31 -33q-14 -4 -36 -4h-76v144h137v141h-137v133h81q33 0 40 -6q8 -7 14 -23q2 -5 3.5 -19.5t3.5 -23.5h127v213h-551zM92 839q0 -55 46 -84 q25 -15 53 -15q60 0 88 55q11 22 11 44q0 46 -37 77q-27 22 -62 22q-55 0 -84 -46q-15 -25 -15 -53zM359 839q0 -55 46 -84q25 -15 53 -15q55 0 84 47q15 24 15 52q0 55 -46 84q-25 15 -53 15q-55 0 -84 -46q-15 -25 -15 -53zM0 -300v1300h652v-1300h-652z" glyph-name="Edieresis" horiz-adv-x="652" unicode="Ë"/>
<glyph d="M435 700h-336v-129h28q31 0 34 -22q1 -6 1 -18v-363q0 -35 -20 -38q-6 -1 -15 -1h-28v-129h336v129h-28q-23 0 -30 9q-6 10 -6 30v363q0 30 13 36q9 4 23 4h28v129zM0 -300v1300h533v-1300h-533zM33 839q0 -56 47 -85q25 -15 53 -15q56 0 85 47q15 25 15 53q0 56 -47 85 q-25 15 -53 15q-56 0 -85 -47q-15 -25 -15 -53zM300 839q0 -56 47 -85q25 -15 53 -15q56 0 85 47q15 25 15 53q0 56 -47 85q-25 15 -53 15q-56 0 -85 -47q-15 -25 -15 -53z" glyph-name="Idieresis" horiz-adv-x="533" unicode="Ï"/>
<glyph d="M369 717q-165 -1 -255 -127q-69 -99 -69 -240q1 -154 64 -244q90 -122 260 -123q171 1 259 123q64 95 65 244q-1 142 -69 240q-83 119 -237 127h-18zM278 316v67q0 124 30 165q23 28 61 29q76 0 88 -118q3 -30 3 -76v-67q0 -166 -56 -188q-14 -5 -35 -5q-45 0 -64 30 q-27 45 -27 163zM136 856q0 -63 56 -89q21 -10 43 -10q60 0 89 56q11 22 11 43q0 43 -35 74q-28 25 -65 25q-51 0 -81 -40q-18 -25 -18 -59zM404 856q0 -55 46 -84q24 -15 53 -15q59 0 85 49q13 23 13 50q0 58 -47 86q-24 13 -51 13q-55 0 -84 -46q-15 -24 -15 -53zM0 -300 v1300h738v-1300h-738z" glyph-name="Odieresis" horiz-adv-x="738" unicode="Ö"/>
<glyph d="M159 112l138 138l138 -138l90 91l-137 138l137 137l-90 91l-138 -138l-138 138l-91 -91l138 -137l-138 -138zM0 -300v1300h593v-1300h-593z" glyph-name="multiply" horiz-adv-x="593" unicode="×"/>
<glyph d="M27 23l85 -75l67 87q77 -52 185 -52q167 0 254 115q4 5 6 8q65 92 65 244q0 129 -66 233q-5 9 -10 16l68 89l-85 76l-68 -89q-70 42 -164 42q-162 -1 -254 -127q-68 -101 -70 -240q0 -141 59 -234zM456 394v-78q0 -136 -40 -173q-21 -19 -52 -19q-49 0 -72 47q-2 4 -3 7z M273 343v44q0 127 33 165q22 25 58 25q39 -1 64 -34zM0 -300v1300h716v-1300h-716z" glyph-name="Oslash" horiz-adv-x="716" unicode="Ø"/>
<glyph d="M380 700h-335v-129h29q7 0 12.5 -1.5t9 -2.5t6 -4.5t4 -5t2 -7t0.5 -6.5v-7v-6v-221q0 -143 40 -211q68 -116 268 -116q179 0 222 158q11 43 11 94v280q0 41 8 49q9 7 28 7h28v129h-266v-129h28q29 0 33 -19q2 -8 2 -21v-221q0 -120 -24 -156q-22 -31 -67 -31 q-74 0 -92 68q-10 36 -10 119v221q0 30 12 36q9 4 23 4h28v129zM146 839q0 -55 46 -84q24 -15 53 -15q57 0 85 48q14 24 14 51q0 57 -48 85q-24 14 -51 14q-55 0 -84 -46q-15 -24 -15 -53zM413 839q0 -46 37 -77q27 -22 62 -22q55 0 84 46q16 25 16 53q0 56 -47 84 q-25 15 -53 15q-51 0 -81 -43q-18 -26 -18 -56zM0 -300v1300h758v-1300h-758z" glyph-name="Udieresis" horiz-adv-x="758" unicode="Ü"/>
<glyph d="M57 0l230 1v489q0 94 52 107q10 2 20 2q42 0 54 -41q3 -12 3 -25q0 -59 -41 -85q-17 -10 -35 -10h-14v-119q82 -1 106 -35q19 -27 19 -80q-1 -84 -72 -85q-22 0 -50 4v-117q53 -18 118 -18q164 0 202 139q10 36 10 77q0 92 -56 149q-50 49 -128 51v9q70 3 109 73 q22 39 22 79q0 59 -55 102q-65 50 -183 50q-211 0 -250 -153q-11 -44 -11 -120v-290q0 -23 -4 -34.5t-8 -13t-14 -1.5h-1h-23v-105zM0 -300v1300h716v-1300h-716z" glyph-name="germandbls" horiz-adv-x="716" unicode="ß"/>
<glyph d="M571 0v126q-4 -1 -9 -1q-26 0 -29 21q-1 7 -1 16v177q0 86 -23 126q-43 72 -172 76h-42q-190 -4 -222 -122q-6 -23 -5 -48h158q0 43 44 52q9 2 18 2q59 -6 64 -48v-53q-271 13 -303 -130q-4 -21 -4 -43q0 -99 75 -140q41 -22 97 -22q89 1 152 56l9 1q12 -57 109 -57 q52 0 84 11zM352 233v-98q0 -25 -41 -29q-6 -1 -10 -1q-44 0 -52 42q-1 6 -1 11q0 46 48 66q26 10 56 9zM73 714q0 -55 46 -84q24 -15 53 -15q53 0 83 45q16 25 16 54q0 47 -38 78q-27 22 -61 22q-56 0 -84 -47q-15 -25 -15 -53zM340 714q0 -48 38 -78q27 -21 61 -21 q58 0 85 48q13 24 13 51q0 59 -47 87q-24 13 -51 13q-62 0 -89 -57q-10 -22 -10 -43zM0 -300v1300h611v-1300h-611z" glyph-name="adieresis" horiz-adv-x="611" unicode="ä"/>
<glyph d="M64 372h144q16 48 70 53q60 -1 60 -55v-44q-304 13 -305 -174q2 -162 205 -163q84 1 144 53h11q66 -53 163 -53q113 0 185 62q63 55 70 147h-193q-9 -75 -32 -88q-10 -5 -25 -5q-49 0 -59 56q-2 11 -2 22v56h310q0 137 -65 220q-65 81 -183 82q-79 0 -131 -37h-13 q-72 37 -157 37q-136 0 -181 -88q-18 -37 -16 -81zM338 230v-73q0 -36 -31 -48q-10 -4 -21 -4q-37 0 -48 32q-3 10 -3 21q0 53 62 68q20 5 41 4zM614 344h-114q1 72 48 80q5 1 9 1q37 0 51 -42q5 -17 6 -39zM0 -300v1300h844v-1300h-844z" glyph-name="ae" horiz-adv-x="844" unicode="æ"/>
<glyph d="M363 326h192q-18 145 -133 193q-52 22 -119 22q-137 -1 -211 -95q-51 -65 -58 -160q-1 -11 -1 -21q0 -165 117 -236q30 -18 67 -31v-6l-6 -5v-46q7 0 13 0.5t9.5 0.5h6.5h4.5h3.5h1q23 0 31 -27q2 -8 2 -16q-1 -43 -65 -43q-6 0 -17 2l-5 -51q34 -17 76 -17q93 0 119 72 q7 20 7 41q0 58 -46 80q-6 3 -12 5v2q100 6 166 78q60 66 50 145h-191q-2 -103 -60 -108q-54 0 -61 88q-1 19 -1 47v51q0 92 23 118q15 16 39 16q39 0 54 -48q6 -24 5 -51zM0 -300v1300h589v-1300h-589z" glyph-name="ccedilla" horiz-adv-x="589" unicode="ç"/>
<glyph d="M519 163h-169q-12 -58 -66 -58q-56 0 -67 46q-4 18 -4 51v25h313q0 141 -65 228q-65 85 -183 86q-139 -1 -213 -97q-58 -75 -58 -183t52 -177q1 -2 2 -3q72 -91 211 -92q140 0 209 93q27 37 38 81zM350 332h-133q-3 68 42 88q12 5 25 5q64 -2 66 -93zM0 -300v1300h533 v-1300h-533zM33 703q0 -56 47 -85q25 -15 53 -15q56 0 85 47q15 25 15 53q0 56 -47 85q-25 15 -53 15q-56 0 -85 -47q-15 -25 -15 -53zM300 703q0 -56 47 -85q25 -15 53 -15q56 0 85 47q15 25 15 53q0 56 -47 85q-25 15 -53 15q-56 0 -85 -47q-15 -25 -15 -53z" glyph-name="edieresis" horiz-adv-x="533" unicode="ë"/>
<glyph d="M119 0h275v105h-18q-27 0 -31 18q-1 6 -1 14v393h-229v-105h18q31 -9 31 -32v-256q0 -22 -9 -28q-8 -4 -22 -4h-14v-105zM0 -300v1300h509v-1300h-509zM20 703q0 -56 47 -85q25 -15 53 -15q56 0 85 47q15 25 15 53q0 56 -47 85q-25 15 -53 15q-56 0 -85 -47 q-15 -25 -15 -53zM288 703q0 -56 47 -85q25 -15 53 -15q56 0 85 47q15 25 15 53q0 56 -47 85q-25 15 -53 15q-56 0 -85 -47q-15 -25 -15 -53z" glyph-name="idieresis" horiz-adv-x="509" unicode="ï"/>
<glyph d="M304 541q-136 0 -212 -95q-51 -65 -58 -160q-1 -11 -1 -21q1 -109 55 -183q53 -69 162 -88q28 -5 54 -5q103 0 177 55q23 18 39 38q55 75 55 183q0 101 -54 174q-3 4 -5 7q-77 94 -212 95zM242 240v50q0 103 32 126q13 9 30 9q51 0 59 -80q2 -20 3 -55v-50 q-2 -110 -34 -128q-12 -6 -28 -6q-35 0 -48 29q-14 33 -14 105zM71 714q0 -57 47 -85q24 -14 52 -14q54 0 84 45q16 25 16 54q0 47 -38 78q-27 22 -62 22q-56 0 -84 -47q-15 -25 -15 -53zM338 714q0 -55 47 -84q25 -15 53 -15q57 0 85 47q14 24 14 52q0 56 -46 85 q-25 15 -53 15q-60 0 -88 -54q-12 -23 -12 -46zM0 -300v1300h608v-1300h-608z" glyph-name="odieresis" horiz-adv-x="608" unicode="ö"/>
<glyph d="M217 104q0 -70 61 -102q27 -14 55 -14q53 0 89 40q28 33 28 76q0 72 -64 104q-27 13 -53 13q-53 0 -88 -41q-28 -32 -28 -76zM599 417h-531v-129h531v129zM217 601q0 -60 49 -96q31 -21 67 -21q53 0 89 41q28 33 28 76q0 62 -51 96q-30 20 -66 20q-63 0 -97 -51 q-19 -30 -19 -65zM0 -300v1300h667v-1300h-667z" glyph-name="divide" horiz-adv-x="667" unicode="÷"/>
<glyph d="M33 53l58 -63l50 49q76 -50 175 -50q131 0 206 79q7 7 12 14q54 71 54 183q-1 101 -48 166l67 66l-58 63l-68 -67q-73 48 -165 48q-139 -1 -216 -95q-57 -74 -57 -181q0 -75 18 -121q9 -22 22 -43zM251 267v23q0 108 39 129q12 6 26 6q28 0 44 -31q4 -7 6 -14zM379 273 v-34q0 -125 -50 -133q-6 -1 -13 -1q-34 0 -50 38q-3 7 -5 14zM0 -300v1300h640v-1300h-640z" glyph-name="oslash" horiz-adv-x="640" unicode="ø"/>
<glyph d="M622 0v105h-19q-24 0 -28 13q-3 8 -3 19v393h-224v-105h13q24 0 29 -16q2 -7 2 -16v-206q0 -58 -28 -70q-12 -4 -28 -4q-54 0 -60 50q-1 9 -1 19v348h-230v-105h19q28 -7 31 -28v-222q0 -81 10 -109q6 -18 15 -30q38 -46 115 -47q92 1 157 57l12 -46h218zM107 714 q0 -55 46 -84q24 -15 53 -15q55 0 84 46q15 25 15 53q0 56 -47 85q-24 15 -52 15q-56 0 -84 -47q-15 -25 -15 -53zM374 714q0 -55 47 -84q25 -15 52 -15q57 0 85 48q14 24 14 51q0 56 -46 85q-25 15 -53 15q-59 0 -87 -54q-12 -23 -12 -46zM0 -300v1300h679v-1300h-679z" glyph-name="udieresis" horiz-adv-x="679" unicode="ü"/>
</font>
</defs>
</svg>
